<svg width="120" height="30" viewBox="0 0 120 30" fill="none" xmlns="http://www.w3.org/2000/svg">
<g clip-path="url(#clip0_12_19)">
<path d="M21.2132 15.7071L9.8995 4.3934L3.57628e-07 14.2929L11.3137 25.6066L21.2132 15.7071Z" stroke="black" stroke-width="0.00016"/>
<path d="M3.53553 17.8284L10.4652 10.8988L7.01803 10.669L6.89429 8.81282L14.8492 9.34315L4.94975 19.2426L3.53553 17.8284ZM10.748 19.1012L14.1952 19.331L14.3189 21.1872L6.36396 20.6569L16.2635 10.7574L17.6777 12.1716L10.748 19.1012Z" fill="black" stroke="black" stroke-width="0.00016"/>
</g>
<path d="M30.7132 22C29.5665 22 28.7199 21.74 28.1732 21.22C27.6265 20.6867 27.3532 19.88 27.3532 18.8V8.82H29.7132V18.62C29.7132 19.1133 29.8332 19.48 30.0732 19.72C30.3132 19.96 30.6665 20.08 31.1332 20.08H33.7732V22H30.7132ZM24.1332 13.24V11.32H33.7732V13.24H24.1332ZM39.4054 22V11.32H41.2054L41.3854 14.08H41.2054C41.3387 13.1467 41.6187 12.4533 42.0454 12C42.4854 11.5467 43.1054 11.32 43.9054 11.32H46.2454V13.3H44.0454C43.5387 13.3 43.1187 13.3933 42.7854 13.58C42.4521 13.7667 42.1987 14.04 42.0254 14.4C41.8521 14.76 41.7654 15.2133 41.7654 15.76V22H39.4054ZM36.7654 22V20.08H45.0654V22H36.7654ZM36.7654 13.24V11.32H40.7854V13.24H36.7654ZM51.7176 22.24C51.0509 22.24 50.4509 22.12 49.9176 21.88C49.3842 21.64 48.9576 21.3 48.6376 20.86C48.3176 20.4067 48.1576 19.8733 48.1576 19.26C48.1576 18.3533 48.4376 17.6533 48.9976 17.16C49.5709 16.6533 50.3909 16.2867 51.4576 16.06L54.7976 15.36C54.7976 14.6133 54.6376 14.0467 54.3176 13.66C54.0109 13.26 53.5242 13.06 52.8576 13.06C52.2442 13.06 51.7709 13.2067 51.4376 13.5C51.1042 13.7933 50.8842 14.18 50.7776 14.66L48.3176 14.52C48.5176 13.4933 49.0109 12.6667 49.7976 12.04C50.5976 11.4 51.6042 11.08 52.8176 11.08C54.2709 11.08 55.3576 11.4667 56.0776 12.24C56.7976 13.0133 57.1576 14.0933 57.1576 15.48V19.46C57.1576 19.7267 57.2109 19.9133 57.3176 20.02C57.4242 20.1133 57.5709 20.16 57.7576 20.16H58.2776V22C58.1976 22.0133 58.0642 22.0267 57.8776 22.04C57.7042 22.0667 57.5242 22.08 57.3376 22.08C56.8309 22.08 56.3976 21.9933 56.0376 21.82C55.6909 21.6467 55.4242 21.3867 55.2376 21.04C55.0509 20.68 54.9509 20.24 54.9376 19.72H55.2376C55.1709 20.2 54.9776 20.6333 54.6576 21.02C54.3376 21.3933 53.9242 21.6933 53.4176 21.92C52.9242 22.1333 52.3576 22.24 51.7176 22.24ZM52.1376 20.4C52.7109 20.4 53.1976 20.3 53.5976 20.1C53.9976 19.8867 54.2976 19.5933 54.4976 19.22C54.6976 18.8333 54.7976 18.3733 54.7976 17.84V17.12L52.1376 17.68C51.5642 17.7867 51.1642 17.96 50.9376 18.2C50.7242 18.4267 50.6176 18.7333 50.6176 19.12C50.6176 19.52 50.7509 19.8333 51.0176 20.06C51.2842 20.2867 51.6576 20.4 52.1376 20.4ZM64.1898 22.24C63.2964 22.24 62.5231 22.02 61.8698 21.58C61.2164 21.1267 60.7098 20.4867 60.3498 19.66C60.0031 18.82 59.8298 17.82 59.8298 16.66C59.8298 15.5 60.0031 14.5067 60.3498 13.68C60.7098 12.84 61.2164 12.2 61.8698 11.76C62.5231 11.3067 63.2964 11.08 64.1898 11.08C64.9364 11.08 65.5831 11.2533 66.1298 11.6C66.6898 11.9333 67.0964 12.34 67.3498 12.82V7.8H69.7098V22H67.4698L67.4098 20.34C67.1298 20.9 66.7098 21.36 66.1498 21.72C65.6031 22.0667 64.9498 22.24 64.1898 22.24ZM64.7498 20.12C65.2698 20.12 65.7231 19.98 66.1098 19.7C66.5098 19.42 66.8164 19.0267 67.0298 18.52C67.2431 18 67.3498 17.38 67.3498 16.66C67.3498 15.9267 67.2431 15.3067 67.0298 14.8C66.8164 14.28 66.5098 13.8867 66.1098 13.62C65.7231 13.34 65.2564 13.2 64.7098 13.2C63.9498 13.2 63.3564 13.5067 62.9298 14.12C62.5031 14.72 62.2898 15.5667 62.2898 16.66C62.2898 17.7533 62.5031 18.6067 62.9298 19.22C63.3564 19.82 63.9631 20.12 64.7498 20.12ZM76.702 22V11.32H79.062V22H76.702ZM72.622 22V20.08H82.542V22H72.622ZM72.822 13.24V11.32H78.722V13.24H72.822ZM76.602 9.9V7.66H79.002V9.9H76.602ZM89.2741 22.24C88.2741 22.24 87.3941 22.0133 86.6341 21.56C85.8875 21.1067 85.3075 20.46 84.8941 19.62C84.4808 18.78 84.2741 17.7933 84.2741 16.66C84.2741 15.54 84.4808 14.5667 84.8941 13.74C85.3075 12.9 85.8808 12.2467 86.6141 11.78C87.3608 11.3133 88.2341 11.08 89.2341 11.08C90.1941 11.08 91.0408 11.3067 91.7741 11.76C92.5208 12.2133 93.1008 12.86 93.5141 13.7C93.9408 14.54 94.1541 15.54 94.1541 16.7V17.32H86.7141C86.7808 18.2267 87.0408 18.92 87.4941 19.4C87.9608 19.88 88.5675 20.12 89.3141 20.12C89.8875 20.12 90.3608 19.9867 90.7341 19.72C91.1208 19.44 91.3875 19.08 91.5341 18.64L93.9541 18.82C93.6208 19.8867 93.0541 20.7267 92.2541 21.34C91.4541 21.94 90.4608 22.24 89.2741 22.24ZM86.7341 15.6H91.5941C91.5275 14.7867 91.2808 14.1867 90.8541 13.8C90.4275 13.4 89.8808 13.2 89.2141 13.2C88.5475 13.2 87.9941 13.4067 87.5541 13.82C87.1275 14.22 86.8541 14.8133 86.7341 15.6ZM96.6863 22V11.32H98.8463L98.9263 14.18L98.6863 14.04C98.8063 13.36 99.033 12.8067 99.3663 12.38C99.6997 11.94 100.106 11.6133 100.586 11.4C101.08 11.1867 101.613 11.08 102.186 11.08C102.973 11.08 103.62 11.2533 104.126 11.6C104.633 11.9467 105.013 12.4267 105.266 13.04C105.52 13.64 105.646 14.3267 105.646 15.1V22H103.286V15.66C103.286 14.8067 103.126 14.1667 102.806 13.74C102.5 13.3133 102.026 13.1 101.386 13.1C100.96 13.1 100.566 13.2 100.206 13.4C99.8597 13.6 99.5797 13.9 99.3663 14.3C99.153 14.6867 99.0463 15.1667 99.0463 15.74V22H96.6863ZM114.659 22C113.512 22 112.665 21.74 112.119 21.22C111.572 20.6867 111.299 19.88 111.299 18.8V8.82H113.659V18.62C113.659 19.1133 113.779 19.48 114.019 19.72C114.259 19.96 114.612 20.08 115.079 20.08H117.719V22H114.659ZM108.079 13.24V11.32H117.719V13.24H108.079Z" fill="black"/>
<defs>
<clipPath id="clip0_12_19">
<rect width="16" height="14" fill="white" transform="translate(9.8995 4.3934) rotate(45)"/>
</clipPath>
</defs>
</svg>
