<svg width="24" height="24" viewBox="0 0 24 24" fill="none" xmlns="http://www.w3.org/2000/svg">
<path d="M0 8C0 3.58172 3.58172 0 8 0H16C20.4183 0 24 3.58172 24 8V16C24 20.4183 20.4183 24 16 24H8C3.58172 24 0 20.4183 0 16V8Z" fill="black"/>
<g clip-path="url(#clip0_12_12)">
<path d="M23.6274 12.3137L12.3137 1L1 12.3137L12.3137 23.6274L23.6274 12.3137Z" stroke="white" stroke-width="0.00016"/>
<path d="M4.53553 15.8492L12.4551 7.92965H8.77817V5.94975H17.2635L5.94975 17.2635L4.53553 15.8492ZM12.1723 16.6978L15.8492 16.6978V18.6777H7.36396L18.6777 7.36396L20.0919 8.77818L12.1723 16.6978Z" fill="white" stroke="white" stroke-width="0.00016"/>
</g>
<defs>
<clipPath id="clip0_12_12">
<rect width="16" height="16" fill="white" transform="translate(12.3137 1) rotate(45)"/>
</clipPath>
</defs>
</svg>
